<svg width="1200" height="1500" viewBox="0 0 1200 1500" fill="none" xmlns="http://www.w3.org/2000/svg">
  <rect width="1200" height="1500" fill="#1C2733"/>
  <rect y="190" width="1200" height="620" fill="#5D7F96"/>
  <path d="M0 840C170 788 334 773 501 788C681 804 855 862 1031 875C1088 879 1144 878 1200 872V1500H0V840Z" fill="#35556C"/>
  <path d="M306 938C357 864 421 819 496 807C573 794 659 822 716 894C775 970 796 1074 765 1160C736 1242 670 1312 586 1340C503 1368 414 1348 353 1288C290 1228 271 1122 294 1037L306 938Z" fill="#E2D4BF"/>
  <path d="M510 812C577 790 647 800 697 845C750 892 780 964 784 1041C788 1127 764 1206 721 1266C680 1322 620 1364 547 1368C476 1373 411 1342 367 1284C323 1228 302 1151 304 1072C306 989 336 906 392 850C426 816 466 796 510 812Z" fill="#C0AB8B"/>
  <rect x="438" y="1008" width="336" height="486" rx="120" fill="#2E3946"/>
</svg>
