<svg width="1920" height="1000" viewBox="0 0 1920 1000" fill="none" xmlns="http://www.w3.org/2000/svg">
  <rect width="1920" height="1000" fill="#2F3C2B"/>
  <path d="M0 474C286 418 533 417 804 451C1061 484 1319 546 1573 566C1695 576 1808 573 1920 557V1000H0V474Z" fill="#5D7658"/>
  <path d="M0 598C261 560 529 561 789 589C1040 617 1290 666 1544 683C1667 691 1791 690 1920 678V1000H0V598Z" fill="#789174"/>
  <path d="M0 725C256 700 523 707 777 733C1014 757 1256 796 1494 810C1630 818 1771 817 1920 804V1000H0V725Z" fill="#97B296"/>
</svg>
